<svg xmlns="http://www.w3.org/2000/svg" width="31" height="44" viewBox="0 0 31 44">
  <defs>
    <style>
      .cls-1 {
        fill: #a3bbc8;
        fill-rule: evenodd;
      }
    </style>
  </defs>
  <path id="icon" class="cls-1" d="M558.6,655.809l-6.584-2.917-5.674,2.51a1.651,1.651,0,0,1-1.864-.355,1.634,1.634,0,0,1-.313-1.862l4.994-10.516a1.1,1.1,0,1,1,1.972.987l-4.343,9.144,4.32-1.914a2.227,2.227,0,0,1,1.806,0l6.583,2.916h0.011l6.585-2.917a2.223,2.223,0,0,1,1.8,0l4.32,1.914-4.342-9.145a1.093,1.093,0,0,1,.174-1.275,1.107,1.107,0,0,1,1.8.288l4.994,10.518a1.656,1.656,0,0,1-2.176,2.216L567,652.892l-6.594,2.917A2.23,2.23,0,0,1,558.6,655.809Zm-1.947-7.6L547.1,632.283c-0.011-.02-0.023-0.041-0.033-0.062a13.944,13.944,0,1,1,26.39-6.327,13.691,13.691,0,0,1-1.528,6.327l-0.034.062-9.548,15.927A3.326,3.326,0,0,1,556.65,648.21Zm2.683-34.012a11.783,11.783,0,0,0-11.586,11.625,11.521,11.521,0,0,0,1.269,5.366l9.529,15.9a1.114,1.114,0,0,0,1.91,0l9.528-15.9a11.665,11.665,0,0,0-2.231-13.625,11.7,11.7,0,0,0-8.247-3.368Zm-4.884,11.7a5.051,5.051,0,1,1,5.051,5.027A5.044,5.044,0,0,1,554.449,625.894Zm2.206,0a2.845,2.845,0,1,0,2.845-2.83A2.842,2.842,0,0,0,556.655,625.894Z" transform="translate(-544 -612)"/>
</svg>
