<svg xmlns="http://www.w3.org/2000/svg" width="22" height="9" viewBox="0 0 22 9">
  <defs>
    <style>
      .cls-1 {
        fill: #436372;
        fill-rule: evenodd;
      }
    </style>
  </defs>
  <path class="cls-1" d="M603.3,2616.47h16.948l-0.1,2.86a0.279,0.279,0,0,0-.084.2,0.3,0.3,0,0,0,.084.21l0.172,0.17a0.276,0.276,0,0,0,.408,0l4.192-4.21a0.283,0.283,0,0,0,.084-0.2,0.307,0.307,0,0,0-.084-0.21l-4.192-4.21a0.3,0.3,0,0,0-.408,0l-0.172.17a0.3,0.3,0,0,0-.084.21,0.3,0.3,0,0,0,.084.2l0.113,2.86H603.292a0.3,0.3,0,0,0-.292.3v1.37A0.288,0.288,0,0,0,603.3,2616.47Z" transform="translate(-603 -2611)"/>
</svg>
