<svg xmlns="http://www.w3.org/2000/svg" width="15" height="11" viewBox="0 0 15 11">
  <defs>
    <style>
      .cls-1 {
        fill: #fff;
        fill-rule: evenodd;
      }
    </style>
  </defs>
  <path class="cls-1" d="M509.931,2024.01a0.673,0.673,0,0,0,.425-0.16l5.434-4.92c0.007,0,.013-0.01.019-0.01l0.031-.03v-0.01h0a0.567,0.567,0,0,0,.138-0.47,0.6,0.6,0,0,0-.155-0.31l-0.033-.03-5.435-4.91a0.65,0.65,0,0,0-.874.02,0.578,0.578,0,0,0,.024.84l4.311,3.89H501.631a0.608,0.608,0,0,0-.617.59,0.6,0.6,0,0,0,.617.59h12.186l-4.311,3.9a0.566,0.566,0,0,0-.024.83A0.608,0.608,0,0,0,509.931,2024.01Z" transform="translate(-501 -2013)"/>
</svg>
