<svg xmlns="http://www.w3.org/2000/svg" width="22" height="9" viewBox="0 0 22 9">
  <defs>
    <style>
      .cls-1 {
        fill: #fff;
        fill-rule: evenodd;
      }
    </style>
  </defs>
  <path class="cls-1" d="M535.3,654.472h16.948l-0.1,2.857a0.292,0.292,0,0,0,0,.41l0.172,0.172a0.28,0.28,0,0,0,.2.086,0.285,0.285,0,0,0,.2-0.084l4.193-4.211A0.292,0.292,0,0,0,557,653.5a0.283,0.283,0,0,0-.084-0.2l-4.193-4.213a0.289,0.289,0,0,0-.407,0l-0.172.173a0.287,0.287,0,0,0-.084.2,0.278,0.278,0,0,0,.084.2l0.113,2.865H535.292a0.3,0.3,0,0,0-.292.295v1.37A0.292,0.292,0,0,0,535.3,654.472Z" transform="translate(-535 -649)"/>
</svg>
