<?xml version="1.0" encoding="UTF-8"?>
<svg xmlns="http://www.w3.org/2000/svg" xmlns:xlink="http://www.w3.org/1999/xlink" width="14px" height="13px" viewBox="0 0 14 13" version="1.1">
<g id="surface1">
<path style=" stroke:none;fill-rule:nonzero;fill: #516278;fill-opacity:1;" d="M 5.953125 1.699219 L 6.648438 1.136719 C 6.941406 0.894531 7.414062 0.894531 7.707031 1.136719 L 13.78125 6.070312 C 14.074219 6.308594 14.074219 6.691406 13.78125 6.929688 L 7.707031 11.863281 C 7.414062 12.105469 6.9375 12.105469 6.648438 11.863281 L 5.953125 11.300781 C 5.65625 11.058594 5.664062 10.667969 5.964844 10.429688 L 9.730469 7.515625 L 0.75 7.515625 C 0.335938 7.515625 0 7.242188 0 6.90625 L 0 6.09375 C 0 5.757812 0.335938 5.484375 0.75 5.484375 L 9.730469 5.484375 L 5.964844 2.570312 C 5.660156 2.332031 5.652344 1.941406 5.953125 1.699219 Z M 5.953125 1.699219 "/>
</g>
</svg>
