<?xml version="1.0" encoding="UTF-8"?>
<svg xmlns="http://www.w3.org/2000/svg" xmlns:xlink="http://www.w3.org/1999/xlink" width="12px" height="13px" viewBox="0 0 12 13" version="1.1">
<g id="surface1">
<path style=" stroke:none;fill-rule:nonzero;fill:#9a9a9a;fill-opacity:1;" d="M 3.964844 7.3125 L 2.894531 7.3125 C 2.714844 7.3125 2.570312 7.175781 2.570312 7.007812 L 2.570312 5.992188 C 2.570312 5.824219 2.714844 5.6875 2.894531 5.6875 L 3.964844 5.6875 C 4.140625 5.6875 4.285156 5.824219 4.285156 5.992188 L 4.285156 7.007812 C 4.285156 7.175781 4.140625 7.3125 3.964844 7.3125 Z M 6.855469 7.007812 L 6.855469 5.992188 C 6.855469 5.824219 6.710938 5.6875 6.535156 5.6875 L 5.464844 5.6875 C 5.289062 5.6875 5.144531 5.824219 5.144531 5.992188 L 5.144531 7.007812 C 5.144531 7.175781 5.289062 7.3125 5.464844 7.3125 L 6.535156 7.3125 C 6.710938 7.3125 6.855469 7.175781 6.855469 7.007812 Z M 9.429688 7.007812 L 9.429688 5.992188 C 9.429688 5.824219 9.285156 5.6875 9.105469 5.6875 L 8.035156 5.6875 C 7.859375 5.6875 7.714844 5.824219 7.714844 5.992188 L 7.714844 7.007812 C 7.714844 7.175781 7.859375 7.3125 8.035156 7.3125 L 9.105469 7.3125 C 9.285156 7.3125 9.429688 7.175781 9.429688 7.007812 Z M 6.855469 9.445312 L 6.855469 8.429688 C 6.855469 8.261719 6.710938 8.125 6.535156 8.125 L 5.464844 8.125 C 5.289062 8.125 5.144531 8.261719 5.144531 8.429688 L 5.144531 9.445312 C 5.144531 9.613281 5.289062 9.75 5.464844 9.75 L 6.535156 9.75 C 6.710938 9.75 6.855469 9.613281 6.855469 9.445312 Z M 4.285156 9.445312 L 4.285156 8.429688 C 4.285156 8.261719 4.140625 8.125 3.964844 8.125 L 2.894531 8.125 C 2.714844 8.125 2.570312 8.261719 2.570312 8.429688 L 2.570312 9.445312 C 2.570312 9.613281 2.714844 9.75 2.894531 9.75 L 3.964844 9.75 C 4.140625 9.75 4.285156 9.613281 4.285156 9.445312 Z M 9.429688 9.445312 L 9.429688 8.429688 C 9.429688 8.261719 9.285156 8.125 9.105469 8.125 L 8.035156 8.125 C 7.859375 8.125 7.714844 8.261719 7.714844 8.429688 L 7.714844 9.445312 C 7.714844 9.613281 7.859375 9.75 8.035156 9.75 L 9.105469 9.75 C 9.285156 9.75 9.429688 9.613281 9.429688 9.445312 Z M 12 2.84375 L 12 11.78125 C 12 12.453125 11.425781 13 10.714844 13 L 1.285156 13 C 0.574219 13 0 12.453125 0 11.78125 L 0 2.84375 C 0 2.171875 0.574219 1.625 1.285156 1.625 L 2.570312 1.625 L 2.570312 0.304688 C 2.570312 0.136719 2.714844 0 2.894531 0 L 3.964844 0 C 4.140625 0 4.285156 0.136719 4.285156 0.304688 L 4.285156 1.625 L 7.714844 1.625 L 7.714844 0.304688 C 7.714844 0.136719 7.859375 0 8.035156 0 L 9.105469 0 C 9.285156 0 9.429688 0.136719 9.429688 0.304688 L 9.429688 1.625 L 10.714844 1.625 C 11.425781 1.625 12 2.171875 12 2.84375 Z M 10.714844 11.628906 L 10.714844 4.0625 L 1.285156 4.0625 L 1.285156 11.628906 C 1.285156 11.710938 1.359375 11.78125 1.445312 11.78125 L 10.554688 11.78125 C 10.640625 11.78125 10.714844 11.710938 10.714844 11.628906 Z M 10.714844 11.628906 "/>
</g>
</svg>
