<svg xmlns="http://www.w3.org/2000/svg" width="37" height="33.968" viewBox="0 0 37 33.968">
  <defs>
    <style>
      .cls-1 {
        fill: #fff;
        fill-rule: evenodd;
      }
    </style>
  </defs>
  <path id="icon" class="cls-1" d="M942.975,650.918a0.957,0.957,0,0,1-.669-0.272,0.922,0.922,0,0,1-.278-0.659L942,629.786c0-.006,0-0.011,0-0.017a0.927,0.927,0,0,1,.408-0.754l5.322-3.616v-3.838a0.94,0.94,0,0,1,.948-0.932h6.067l5.217-3.546a0.961,0.961,0,0,1,1.079,0l5.185,3.545h6.093a0.94,0.94,0,0,1,.947.932v3.882l5.3,3.621a0.933,0.933,0,0,1,.373.519,0.528,0.528,0,0,1,.034.184L979,649.937a0.941,0.941,0,0,1-.946.933l-35.077.048h0Zm2.773-1.867,29.478-.041-14.712-11.224Zm-1.828-.965,11.443-8.73L943.9,631.563Zm21.72-8.748,11.461,8.744-0.023-16.565Zm-16.014-6.148,7.308,4.968,3-2.288a0.959,0.959,0,0,1,1.148-.008l0.013,0.008,2.977,2.272,7.3-4.993V622.493H949.626v10.7Zm-5.013-3.408,3.118,2.121v-4.241Zm28.654,2.072,3.028-2.071-3.028-2.07v4.141Zm-15.188-11.225h4.828l-2.407-1.645Zm-3.994,12.3a0.933,0.933,0,1,1,0-1.865h12.83a0.933,0.933,0,1,1,0,1.865h-12.83Zm0-4.847a0.932,0.932,0,1,1,0-1.864h12.83a0.932,0.932,0,1,1,0,1.864h-12.83Z" transform="translate(-942 -616.938)"/>
</svg>
