<?xml version="1.0" encoding="UTF-8"?>
<svg xmlns="http://www.w3.org/2000/svg" xmlns:xlink="http://www.w3.org/1999/xlink" width="20px" height="20px" viewBox="0 0 20 20" version="1.1">
<g id="surface1">
<path style=" stroke:none;fill-rule:nonzero;fill:rgb(100%,100%,100%);fill-opacity:1;" d="M 0.152344 2.144531 C 0.410156 1.597656 0.957031 1.25 1.5625 1.25 L 18.4375 1.25 C 19.042969 1.25 19.589844 1.597656 19.847656 2.144531 C 20.109375 2.6875 20.027344 3.335938 19.613281 3.800781 L 12.5 12.535156 L 12.5 17.5 C 12.5 17.972656 12.234375 18.40625 11.808594 18.617188 C 11.386719 18.828125 10.878906 18.785156 10.5 18.5 L 8 16.625 C 7.683594 16.390625 7.5 16.019531 7.5 15.625 L 7.5 12.535156 L 0.351562 3.800781 C -0.0273438 3.335938 -0.109375 2.6875 0.152344 2.144531 Z M 0.152344 2.144531 "/>
</g>
</svg>
