<svg xmlns="http://www.w3.org/2000/svg" width="22.66" height="14.38" viewBox="0 0 22.66 14.38">
  <defs>
    <style>
      .cls-1 {
        fill: #888;
        fill-rule: evenodd;
      }
    </style>
  </defs>
  <path id="Union_6" data-name="Union 6" class="cls-1" d="M1052.75,1960.35a7.121,7.121,0,0,1-6.59-5.65,6.6,6.6,0,0,1-.14-1.93,7.277,7.277,0,0,1,5.49-6.56,5.282,5.282,0,0,1,1.18-.19c0.23-.01.46-0.02,0.69-0.02a6.786,6.786,0,0,1,3.4.93,9.386,9.386,0,0,1,1.27.93c-0.72.71-1.41,1.4-2.11,2.09a3.914,3.914,0,0,0-2.1-1.02,4.259,4.259,0,0,0-.61-0.04,4.307,4.307,0,0,0-4.14,3.35,3.817,3.817,0,0,0-.1,1.3,4.3,4.3,0,0,0,2.94,3.74,4.35,4.35,0,0,0,1.25.19c0.1,0,.2-0.01.3-0.01a4.2,4.2,0,0,0,2.09-.67,3.314,3.314,0,0,0,1.43-2.17h-3.85c0-.09.02-1.89,0.02-2.76l0.01-.12h6.76a7.773,7.773,0,0,1-1.28,6.05,6.273,6.273,0,0,1-3.55,2.32,7.539,7.539,0,0,1-1.94.25C1053.03,1960.36,1052.89,1960.36,1052.75,1960.35Zm13.33-4.05h-1.89v-0.07l0.02-2.43h-2.51v-0.08l0.02-1.82v-0.07h2.5l0.02-2.43v-0.07h1.96v0.07l-0.02,2.43h2.51v0.07l-0.01,1.82v0.08h-2.51l-0.02,2.43v0.07h-0.07Z" transform="translate(-1046.03 -1946)"/>
</svg>
