<svg xmlns="http://www.w3.org/2000/svg" width="17.19" height="17.19" viewBox="0 0 17.19 17.19">
  <defs>
    <style>
      .cls-1 {
        fill: #888;
        fill-rule: evenodd;
      }
    </style>
  </defs>
  <path id="Union_5" data-name="Union 5" class="cls-1" d="M1004.59,1961.94a4.322,4.322,0,0,1-3.43-3.75c-0.23-1.45-.25-8.19.17-9.65a4.387,4.387,0,0,1,3.75-3.35,34.173,34.173,0,0,1,4.31-.19c1.6,0,3.22.04,4.19,0.1a4.724,4.724,0,0,1,3.14,1.28,4.517,4.517,0,0,1,1.38,2.94c0.12,1.35.21,7.74-.19,9.24a4.411,4.411,0,0,1-3.8,3.44,42.333,42.333,0,0,1-4.74.19A29.143,29.143,0,0,1,1004.59,1961.94Zm0.92-15.26a2.958,2.958,0,0,0-2.75,2.59,57.587,57.587,0,0,0-.06,8.69,2.8,2.8,0,0,0,2.12,2.43,27.569,27.569,0,0,0,4.63.25c1.8,0,3.57-.06,4.24-0.13a2.941,2.941,0,0,0,2.75-2.6,61.315,61.315,0,0,0,.11-8.45,2.9,2.9,0,0,0-2.58-2.74,40.212,40.212,0,0,0-4.3-.16C1007.96,1946.56,1006.26,1946.6,1005.51,1946.68Zm-0.32,6.92a4.445,4.445,0,0,1,4.45-4.41,4.37,4.37,0,0,1,4.37,4.41,4.458,4.458,0,0,1-4.45,4.41A4.37,4.37,0,0,1,1005.19,1953.6Zm1.55-.03a2.834,2.834,0,0,0,2.81,2.88h0.02a2.882,2.882,0,0,0,2.88-2.82,2.82,2.82,0,0,0-2.8-2.88h-0.03A2.881,2.881,0,0,0,1006.74,1953.57Zm6.45-4.55a1.029,1.029,0,0,1,1.03-1.03h0.01a1.016,1.016,0,0,1,1.02,1.04,1.035,1.035,0,0,1-1.04,1.02A1.014,1.014,0,0,1,1013.19,1949.02Z" transform="translate(-1001 -1945)"/>
</svg>
