<?xml version="1.0" encoding="UTF-8"?>
<svg xmlns="http://www.w3.org/2000/svg" xmlns:xlink="http://www.w3.org/1999/xlink" width="12px" height="13px" viewBox="0 0 12 13" version="1.1">
<g id="surface1">
<path style=" stroke:none;fill-rule:nonzero;fill:rgb(100%,100%,100%);fill-opacity:1;" d="M 8.398438 7.71875 C 7.632812 7.71875 7.261719 8.125 6 8.125 C 4.738281 8.125 4.371094 7.71875 3.601562 7.71875 C 1.613281 7.71875 0 9.246094 0 11.132812 L 0 11.78125 C 0 12.453125 0.574219 13 1.285156 13 L 10.714844 13 C 11.425781 13 12 12.453125 12 11.78125 L 12 11.132812 C 12 9.246094 10.386719 7.71875 8.398438 7.71875 Z M 10.714844 11.78125 L 1.285156 11.78125 L 1.285156 11.132812 C 1.285156 9.921875 2.324219 8.9375 3.601562 8.9375 C 3.992188 8.9375 4.625 9.34375 6 9.34375 C 7.386719 9.34375 8.007812 8.9375 8.398438 8.9375 C 9.675781 8.9375 10.714844 9.921875 10.714844 11.132812 Z M 6 7.3125 C 8.128906 7.3125 9.855469 5.675781 9.855469 3.65625 C 9.855469 1.636719 8.128906 0 6 0 C 3.871094 0 2.144531 1.636719 2.144531 3.65625 C 2.144531 5.675781 3.871094 7.3125 6 7.3125 Z M 6 1.21875 C 7.417969 1.21875 8.570312 2.3125 8.570312 3.65625 C 8.570312 5 7.417969 6.09375 6 6.09375 C 4.582031 6.09375 3.429688 5 3.429688 3.65625 C 3.429688 2.3125 4.582031 1.21875 6 1.21875 Z M 6 1.21875 "/>
</g>
</svg>
