<svg xmlns="http://www.w3.org/2000/svg" width="13.687" height="13.16" viewBox="0 0 13.687 13.16">
  <defs>
    <style>
      .cls-1 {
        fill: #597583;
        fill-rule: evenodd;
        opacity: 1;
      }
    </style>
  </defs>
  <path class="cls-1" d="M651.382,1060.17H638.549a0.426,0.426,0,0,1-.428-0.42,6.85,6.85,0,0,1,13.689,0A0.426,0.426,0,0,1,651.382,1060.17Zm-12.39-.83h11.947A6.011,6.011,0,0,0,638.992,1059.34Zm5.974-5.34a3.5,3.5,0,1,1,3.636-3.5A3.574,3.574,0,0,1,644.966,1054Zm0-6.17a2.672,2.672,0,1,0,2.78,2.67A2.732,2.732,0,0,0,644.966,1047.83Z" transform="translate(-638.125 -1047)"/>
</svg>
