<svg xmlns="http://www.w3.org/2000/svg" xmlns:xlink="http://www.w3.org/1999/xlink" width="20px" height="18px" viewBox="0 0 19 18" version="1.1">
<g id="surface1">
<path style=" stroke:none;fill-rule:evenodd;fill:rgb(100%,100%,100%);fill-opacity:1;" d="M 0.703125 1.46875 L 2.71875 1.46875 L 5.585938 12.304688 C 5.675781 12.617188 5.953125 12.835938 6.265625 12.835938 L 15.089844 12.835938 C 15.367188 12.832031 15.617188 12.664062 15.734375 12.402344 L 18.941406 4.699219 C 19.035156 4.46875 19.015625 4.207031 18.882812 3.996094 C 18.753906 3.789062 18.535156 3.664062 18.296875 3.664062 L 8.550781 3.664062 C 8.160156 3.664062 7.84375 3.992188 7.84375 4.402344 C 7.84375 4.808594 8.160156 5.140625 8.550781 5.140625 L 17.222656 5.140625 L 14.621094 11.367188 L 6.792969 11.367188 L 3.925781 0.539062 C 3.84375 0.21875 3.5625 -0.00390625 3.246094 0 L 0.703125 0 C 0.3125 0 0 0.328125 0 0.734375 C 0 1.136719 0.3125 1.46875 0.703125 1.46875 Z M 5.601562 18 C 6.484375 18.003906 7.199219 17.257812 7.203125 16.339844 C 7.203125 15.417969 6.488281 14.671875 5.605469 14.671875 C 4.722656 14.667969 4.007812 15.414062 4.007812 16.335938 C 4.007812 17.253906 4.71875 17.996094 5.601562 18 Z M 15.558594 18 L 15.675781 18 C 16.570312 17.96875 17.277344 17.191406 17.261719 16.253906 C 17.246094 15.320312 16.515625 14.570312 15.617188 14.570312 C 14.71875 14.570312 13.984375 15.320312 13.96875 16.253906 C 13.953125 17.191406 14.660156 17.96875 15.558594 18 Z M 15.558594 18 "/>
</g>
</svg>
