<svg xmlns="http://www.w3.org/2000/svg" width="18" height="12.38" viewBox="0 0 18 12.38">
  <defs>
    <style>
      .cls-1 {
        fill: #222933;
        fill-rule: evenodd;
        opacity: 0.8;
      }
    </style>
  </defs>
  <path class="cls-1" d="M964.714,1059.99H949.286a1.259,1.259,0,0,1-1.286-1.23v-9.9a1.268,1.268,0,0,1,1.286-1.24h15.428a1.268,1.268,0,0,1,1.286,1.24v9.9A1.259,1.259,0,0,1,964.714,1059.99Zm-15.428-11.54a0.417,0.417,0,0,0-.429.41v9.9a0.424,0.424,0,0,0,.429.41h15.428a0.425,0.425,0,0,0,.429-0.41v-9.9a0.418,0.418,0,0,0-.429-0.41H949.286Zm7.714,5.59a1.312,1.312,0,0,1-.737-0.23l-7.782-5.24a0.4,0.4,0,0,1-.106-0.57,0.437,0.437,0,0,1,.6-0.1l7.782,5.24a0.441,0.441,0,0,0,.492,0l7.782-5.24a0.435,0.435,0,0,1,.6.1,0.4,0.4,0,0,1-.105.57l-7.782,5.24A1.315,1.315,0,0,1,957,1054.04Zm8.32,5.71a0.437,0.437,0,0,1-.3-0.12l-6.613-6.36a0.41,0.41,0,0,1,0-.59,0.443,0.443,0,0,1,.606,0l6.613,6.37a0.4,0.4,0,0,1,0,.58A0.436,0.436,0,0,1,965.32,1059.75Zm-16.64,0a0.436,0.436,0,0,1-.3-0.12,0.4,0.4,0,0,1,0-.58l6.612-6.37a0.444,0.444,0,0,1,.607,0,0.41,0.41,0,0,1,0,.59l-6.613,6.36A0.439,0.439,0,0,1,948.68,1059.75Z" transform="translate(-948 -1047.62)"/>
</svg>
