<svg xmlns="http://www.w3.org/2000/svg" xmlns:xlink="http://www.w3.org/1999/xlink" width="20px" height="18px" viewBox="0 0 20 18" version="1.1">
<g id="surface1">
<path style=" stroke:none;fill-rule:evenodd;fill:rgb(63.921569%,73.333333%,78.431373%);fill-opacity:1;" d="M 19.449219 15.121094 L 14.863281 10.988281 C 14.179688 11.945312 13.273438 12.757812 12.210938 13.375 L 16.800781 17.503906 C 17.53125 18.164062 18.71875 18.164062 19.449219 17.503906 C 20.179688 16.847656 20.183594 15.777344 19.449219 15.121094 Z M 15 6.75 C 15 3.023438 11.640625 0 7.5 0 C 3.359375 0 0 3.023438 0 6.75 C 0 10.476562 3.359375 13.5 7.5 13.5 C 11.640625 13.5 15 10.476562 15 6.75 Z M 7.5 11.808594 C 4.394531 11.808594 1.875 9.539062 1.875 6.742188 C 1.875 3.949219 4.394531 1.679688 7.503906 1.683594 C 10.609375 1.683594 13.128906 3.953125 13.125 6.75 C 13.121094 9.542969 10.605469 11.804688 7.5 11.808594 Z M 3.125 6.75 L 4.375 6.75 C 4.378906 5.195312 5.773438 3.9375 7.5 3.933594 L 7.5 2.808594 C 5.085938 2.8125 3.128906 4.574219 3.125 6.75 Z M 3.125 6.75 "/>
</g>
</svg>
